<svg width="1179" height="440" xmlns="http://www.w3.org/2000/svg" xmlns:xlink="http://www.w3.org/1999/xlink" overflow="hidden"><defs><clipPath id="clip0"><path d="M51 209 1230 209 1230 649 51 649Z" fill-rule="evenodd" clip-rule="evenodd"/></clipPath></defs><g clip-path="url(#clip0)" transform="translate(-51 -209)"><rect x="51" y="210" width="1178" height="438" fill="#3D3822"/><path d="M194.5 514.5 194.5 525.455 91.4616 525.455 91.4616 582.5 80.5 582.5 80.5 514.5Z" stroke="#000000" stroke-width="1.33333" stroke-miterlimit="8" fill="#FFFFFF" fill-rule="evenodd"/><text fill="#FFFFFF" font-family="Avenir Next LT Pro,Avenir Next LT Pro_MSFontService,sans-serif" font-weight="300" font-size="21" transform="translate(98.1235 550)">1975<tspan font-family="Microsoft YaHei,Microsoft YaHei_MSFontService,sans-serif" font-weight="400" x="49.3333" y="0">确</tspan><tspan font-family="Microsoft YaHei,Microsoft YaHei_MSFontService,sans-serif" font-weight="400" x="0" y="23">定性理论</tspan></text><path d="M175.5 502.5 194.5 483.5 194.5 502.5Z" stroke="#000000" stroke-width="1.33333" stroke-miterlimit="8" fill="#FFFFFF" fill-rule="evenodd"/><path d="M320.5 483.5 320.5 494.455 217.462 494.455 217.462 551.5 206.5 551.5 206.5 483.5Z" stroke="#000000" stroke-width="1.33333" stroke-miterlimit="8" fill="#FFFFFF" fill-rule="evenodd"/><text fill="#FFFFFF" font-family="Avenir Next LT Pro,Avenir Next LT Pro_MSFontService,sans-serif" font-weight="300" font-size="21" transform="translate(223.772 519)">1976<tspan font-family="Microsoft YaHei,Microsoft YaHei_MSFontService,sans-serif" font-weight="400" x="49.3333" y="0">主</tspan><tspan font-family="Microsoft YaHei,Microsoft YaHei_MSFontService,sans-serif" font-weight="400" x="0" y="23">观概率法</tspan></text><path d="M301.5 471.5 320.5 452.5 320.5 471.5Z" stroke="#000000" stroke-width="1.33333" stroke-miterlimit="8" fill="#FFFFFF" fill-rule="evenodd"/><path d="M445.5 452.5 445.5 463.455 343.462 463.455 343.462 520.5 332.5 520.5 332.5 452.5Z" stroke="#000000" stroke-width="1.33333" stroke-miterlimit="8" fill="#FFFFFF" fill-rule="evenodd"/><text fill="#FFFFFF" font-family="Avenir Next LT Pro,Avenir Next LT Pro_MSFontService,sans-serif" font-weight="300" font-size="21" transform="translate(349.422 488)">1976<tspan font-family="Microsoft YaHei,Microsoft YaHei_MSFontService,sans-serif" font-weight="400" x="49.3333" y="0">证</tspan><tspan font-family="Microsoft YaHei,Microsoft YaHei_MSFontService,sans-serif" font-weight="400" x="0" y="23">据理论</tspan></text><path d="M426.5 440.5 446.5 421.5 446.5 440.5Z" stroke="#000000" stroke-width="1.33333" stroke-miterlimit="8" fill="#FFFFFF" fill-rule="evenodd"/><path d="M571.5 421.5 571.5 432.455 468.462 432.455 468.462 489.5 457.5 489.5 457.5 421.5Z" stroke="#000000" stroke-width="1.33333" stroke-miterlimit="8" fill="#FFFFFF" fill-rule="evenodd"/><text fill="#FFFFFF" font-family="Avenir Next LT Pro,Avenir Next LT Pro_MSFontService,sans-serif" font-weight="300" font-size="21" transform="translate(475.071 457)">1978<tspan font-family="Microsoft YaHei,Microsoft YaHei_MSFontService,sans-serif" font-weight="400" x="49.3333" y="0">可</tspan><tspan font-family="Microsoft YaHei,Microsoft YaHei_MSFontService,sans-serif" font-weight="400" x="0" y="23">能性理论</tspan></text><path d="M552.5 409.5 571.5 390.5 571.5 409.5Z" stroke="#000000" stroke-width="1.33333" stroke-miterlimit="8" fill="#FFFFFF" fill-rule="evenodd"/><path d="M697.5 390.5 697.5 401.455 594.462 401.455 594.462 458.5 583.5 458.5 583.5 390.5Z" stroke="#000000" stroke-width="1.33333" stroke-miterlimit="8" fill="#FFFFFF" fill-rule="evenodd"/><text fill="#FFFFFF" font-family="Avenir Next LT Pro,Avenir Next LT Pro_MSFontService,sans-serif" font-weight="300" font-size="21" transform="translate(600.72 425)">1983<tspan font-family="Microsoft YaHei,Microsoft YaHei_MSFontService,sans-serif" font-weight="400" x="49.3334" y="0">模</tspan><tspan font-family="Microsoft YaHei,Microsoft YaHei_MSFontService,sans-serif" font-weight="400" x="0" y="23">糊逻辑</tspan></text><path d="M678.5 378.5 697.5 359.5 697.5 378.5Z" stroke="#000000" stroke-width="1.33333" stroke-miterlimit="8" fill="#FFFFFF" fill-rule="evenodd"/><path d="M822.5 359.5 822.5 370.455 720.462 370.455 720.462 427.5 709.5 427.5 709.5 359.5Z" stroke="#000000" stroke-width="1.33333" stroke-miterlimit="8" fill="#FFFFFF" fill-rule="evenodd"/><text fill="#FFFFFF" font-family="Avenir Next LT Pro,Avenir Next LT Pro_MSFontService,sans-serif" font-weight="300" font-size="21" transform="translate(726.369 394)">1984<tspan font-family="Microsoft YaHei,Microsoft YaHei_MSFontService,sans-serif" font-weight="400" x="49.3333" y="0">关</tspan><tspan font-family="Microsoft YaHei,Microsoft YaHei_MSFontService,sans-serif" font-weight="400" x="0" y="23">联值计算</tspan></text><path d="M803.5 347.5 823.5 328.5 823.5 347.5Z" stroke="#000000" stroke-width="1.33333" stroke-miterlimit="8" fill="#FFFFFF" fill-rule="evenodd"/><path d="M948.5 328.5 948.5 339.455 845.462 339.455 845.462 396.5 834.5 396.5 834.5 328.5Z" stroke="#000000" stroke-width="1.33333" stroke-miterlimit="8" fill="#FFFFFF" fill-rule="evenodd"/><text fill="#FFFFFF" font-family="Avenir Next LT Pro,Avenir Next LT Pro_MSFontService,sans-serif" font-weight="300" font-size="21" transform="translate(852.018 363)">1985<tspan font-family="Microsoft YaHei,Microsoft YaHei_MSFontService,sans-serif" font-weight="400" x="49.3334" y="0">批</tspan><tspan font-family="Microsoft YaHei,Microsoft YaHei_MSFontService,sans-serif" font-weight="400" x="0" y="23">注理论</tspan></text><path d="M929.5 316.5 948.5 297.5 948.5 316.5Z" stroke="#000000" stroke-width="1.33333" stroke-miterlimit="8" fill="#FFFFFF" fill-rule="evenodd"/><path d="M1074.5 297.5 1074.5 308.455 971.462 308.455 971.462 365.5 960.5 365.5 960.5 297.5Z" stroke="#000000" stroke-width="1.33333" stroke-miterlimit="8" fill="#FFFFFF" fill-rule="evenodd"/><text fill="#FFFFFF" font-family="Avenir Next LT Pro,Avenir Next LT Pro_MSFontService,sans-serif" font-weight="300" font-size="21" transform="translate(977.667 332)">1986<tspan font-family="Microsoft YaHei,Microsoft YaHei_MSFontService,sans-serif" font-weight="400" x="49.3334" y="0">概</tspan><tspan font-family="Microsoft YaHei,Microsoft YaHei_MSFontService,sans-serif" font-weight="400" x="0" y="23">率逻辑</tspan></text><path d="M1055.5 285.5 1074.5 265.5 1074.5 285.5Z" stroke="#000000" stroke-width="1.33333" stroke-miterlimit="8" fill="#FFFFFF" fill-rule="evenodd"/><path d="M1199.5 265.5 1199.5 276.616 1097.62 276.616 1097.62 334.5 1086.5 334.5 1086.5 265.5Z" stroke="#000000" stroke-width="1.33333" stroke-miterlimit="8" fill="#FFFFFF" fill-rule="evenodd"/><text fill="#FFFFFF" font-family="Avenir Next LT Pro,Avenir Next LT Pro_MSFontService,sans-serif" font-weight="300" font-size="21" transform="translate(1103.32 301)">1986<tspan font-family="Microsoft YaHei,Microsoft YaHei_MSFontService,sans-serif" font-weight="400" x="49.3333" y="0">信</tspan><tspan font-family="Microsoft YaHei,Microsoft YaHei_MSFontService,sans-serif" font-weight="400" x="0" y="23">任网络</tspan></text></g></svg>