<svg width="617" height="700" xmlns="http://www.w3.org/2000/svg" xmlns:xlink="http://www.w3.org/1999/xlink" overflow="hidden"><defs><clipPath id="clip0"><path d="M300-1 917-1 917 699 300 699Z" fill-rule="evenodd" clip-rule="evenodd"/></clipPath></defs><g clip-path="url(#clip0)" transform="translate(-300 1)"><rect x="302.5" y="0.500053" width="613" height="698" stroke="#878D8F" stroke-width="1.33333" stroke-miterlimit="8" fill="#C5E1F3"/><rect x="434.5" y="12.5001" width="302" height="129" stroke="#022951" stroke-width="1.33333" stroke-miterlimit="8" fill="#033B71"/><text fill="#FFFFFF" font-family="Microsoft YaHei,Microsoft YaHei_MSFontService,sans-serif" font-weight="400" font-size="24" transform="translate(536.686 85)">人机界面</text><rect x="434.5" y="527.5" width="302" height="129" stroke="#022951" stroke-width="1.33333" stroke-miterlimit="8" fill="#033B71"/><text fill="#FFFFFF" font-family="Microsoft YaHei,Microsoft YaHei_MSFontService,sans-serif" font-weight="400" font-size="24" transform="translate(500.686 600)">知识库管理模块</text><rect x="434.5" y="366.5" width="302" height="129" stroke="#022951" stroke-width="1.33333" stroke-miterlimit="8" fill="#033B71"/><text fill="#FFFFFF" font-family="Microsoft YaHei,Microsoft YaHei_MSFontService,sans-serif" font-weight="400" font-size="24" transform="translate(548.686 439)">知识库</text><rect x="496.5" y="189.5" width="45" height="153" stroke="#022951" stroke-width="1.33333" stroke-miterlimit="8" fill="#033B71"/><text fill="#FFFFFF" font-family="Microsoft YaHei,Microsoft YaHei_MSFontService,sans-serif" font-weight="400" font-size="24" transform="translate(506.4 245)">推<tspan x="0" y="29">理</tspan><tspan x="0" y="58">机</tspan></text><rect x="634.5" y="189.5" width="44" height="153" stroke="#022951" stroke-width="1.33333" stroke-miterlimit="8" fill="#033B71"/><text fill="#FFFFFF" font-family="Microsoft YaHei,Microsoft YaHei_MSFontService,sans-serif" font-weight="400" font-size="24" transform="translate(644 231)">解<tspan x="0" y="29">释</tspan><tspan x="0" y="58">模</tspan><tspan x="0" y="87">块</tspan></text><rect x="634.5" y="396.5" width="86" height="78" stroke="#7396AD" stroke-width="1.33333" stroke-miterlimit="8" fill="#9ECDEB"/><text fill="#FFFFFF" font-family="Microsoft YaHei,Microsoft YaHei_MSFontService,sans-serif" font-weight="400" font-size="24" transform="translate(653.029 429)">规则<tspan x="12" y="29">库</tspan></text><rect x="442.5" y="390.5" width="99" height="90" stroke="#7396AD" stroke-width="1.33333" stroke-miterlimit="8" fill="#9ECDEB"/><text fill="#FFFFFF" font-family="Microsoft YaHei,Microsoft YaHei_MSFontService,sans-serif" font-weight="400" font-size="24" transform="translate(455.2 429)">动态数<tspan x="12" y="29">据库</tspan></text><path d="M0.345777 0.653279 1.235 47.5625 0.568449 47.5752-0.32077 0.665914ZM-4.79276 8.58442-2.92953e-05-0.00154466 5.11465 8.39661C5.21041 8.55384 5.16057 8.75893 5.00334 8.85469 4.84611 8.95045 4.64102 8.90061 4.54527 8.74338L-0.272183 0.833265 0.303567 0.822351-4.21064 8.90936C-4.30037 9.07011-4.50342 9.12768-4.66417 9.03795-4.82491 8.94822-4.88248 8.74517-4.79276 8.58442ZM5.70698 39.644 0.914255 48.23-4.20042 39.8318C-4.29618 39.6746-4.24635 39.4695-4.08912 39.3738-3.93189 39.278-3.7268 39.3278-3.63104 39.4851L1.18641 47.3952 0.610659 47.4061 5.12487 39.3191C5.21459 39.1583 5.41765 39.1008 5.57839 39.1905 5.73914 39.2802 5.79671 39.4833 5.70698 39.644Z" fill="#033B71" transform="matrix(-1 -8.74228e-08 -8.74228e-08 1 519.414 141.5)"/><path d="M0.345777 0.653279 1.235 47.5625 0.568449 47.5752-0.32077 0.665914ZM-4.79276 8.58442-2.92953e-05-0.00154466 5.11465 8.39661C5.21041 8.55384 5.16057 8.75893 5.00334 8.85469 4.84611 8.95045 4.64102 8.90061 4.54527 8.74338L-0.272183 0.833265 0.303567 0.822351-4.21064 8.90936C-4.30037 9.07011-4.50342 9.12768-4.66417 9.03795-4.82491 8.94822-4.88248 8.74517-4.79276 8.58442ZM5.70698 39.644 0.914255 48.23-4.20042 39.8318C-4.29618 39.6746-4.24635 39.4695-4.08912 39.3738-3.93189 39.278-3.7268 39.3278-3.63104 39.4851L1.18641 47.3952 0.610659 47.4061 5.12487 39.3191C5.21459 39.1583 5.41765 39.1008 5.57839 39.1905 5.73914 39.2802 5.79671 39.4833 5.70698 39.644Z" fill="#033B71" transform="matrix(-1 -8.74228e-08 -8.74228e-08 1 656.414 140.5)"/><path d="M656.833 343.16 656.833 367.611 656.167 367.611 656.167 343.16ZM651.546 350.992 656.5 342.499 661.455 350.992C661.547 351.151 661.494 351.355 661.335 351.448 661.176 351.541 660.972 351.487 660.879 351.328L656.212 343.328 656.788 343.328 652.121 351.328C652.029 351.487 651.824 351.541 651.665 351.448 651.506 351.355 651.453 351.151 651.546 350.992ZM661.455 359.779 656.5 368.273 651.546 359.779C651.453 359.62 651.506 359.416 651.666 359.323 651.825 359.231 652.029 359.284 652.121 359.443L656.788 367.443 656.212 367.443 660.879 359.443C660.972 359.284 661.176 359.23 661.335 359.323 661.494 359.416 661.547 359.62 661.455 359.779Z" fill="#033B71"/><path d="M516.833 341.16 516.833 365.611 516.167 365.611 516.167 341.16ZM511.546 348.992 516.5 340.499 521.455 348.992C521.547 349.151 521.494 349.355 521.335 349.448 521.176 349.541 520.972 349.487 520.879 349.328L516.212 341.328 516.788 341.328 512.121 349.328C512.029 349.487 511.824 349.541 511.665 349.448 511.506 349.355 511.453 349.151 511.546 348.992ZM521.455 357.779 516.5 366.273 511.546 357.779C511.453 357.62 511.507 357.416 511.665 357.323 511.825 357.231 512.029 357.284 512.121 357.443L516.788 365.443 516.212 365.443 520.879 357.443C520.972 357.284 521.176 357.23 521.335 357.323 521.494 357.416 521.547 357.62 521.455 357.779Z" fill="#033B71"/><path d="M585.833 496.16 585.833 527.183 585.167 527.183 585.167 496.16ZM580.545 503.992 585.5 495.499 590.455 503.992C590.547 504.151 590.494 504.355 590.335 504.448 590.176 504.541 589.972 504.487 589.879 504.328L585.212 496.328 585.788 496.328 581.121 504.328C581.029 504.487 580.824 504.541 580.665 504.448 580.506 504.355 580.453 504.151 580.545 503.992ZM590.455 519.351 585.5 527.845 580.546 519.351C580.453 519.192 580.506 518.988 580.666 518.895 580.825 518.802 581.029 518.856 581.121 519.015L585.788 527.015 585.212 527.015 589.879 519.015C589.972 518.856 590.176 518.802 590.335 518.895 590.494 518.988 590.547 519.192 590.455 519.351Z" fill="#033B71"/></g></svg>