<svg width="1014" height="660" xmlns="http://www.w3.org/2000/svg" xmlns:xlink="http://www.w3.org/1999/xlink" overflow="hidden"><defs><clipPath id="clip0"><path d="M164 32 1178 32 1178 692 164 692Z" fill-rule="evenodd" clip-rule="evenodd"/></clipPath></defs><g clip-path="url(#clip0)" transform="translate(-164 -32)"><rect x="164" y="33" width="1013" height="659" fill="#8362C2"/><path d="M265 88.5004C265 81.5966 270.597 76 277.5 76L934.5 76C941.404 76 947.001 81.5966 947.001 88.5004L947 188.5C947 195.404 941.403 201.001 934.5 201.001L277.5 201C270.597 201 265 195.403 265 188.5Z" stroke="#FFFFFF" stroke-width="2" stroke-linecap="round" stroke-linejoin="round" stroke-miterlimit="10" fill="#C363E8" fill-rule="evenodd"/><text fill="#FFFFFF" font-family="SimSun,SimSun_MSFontService,sans-serif" font-weight="400" font-size="45" transform="translate(281.887 152)">神经系统模型和决策理论</text><path d="M322 235.6C322 228.641 327.641 223 334.6 223L991.4 223C998.359 223 1004 228.641 1004 235.6L1004 336.4C1004 343.359 998.359 349 991.4 349L334.6 349C327.641 349 322 343.359 322 336.4Z" stroke="#FFFFFF" stroke-width="2" stroke-linecap="round" stroke-linejoin="round" stroke-miterlimit="10" fill="#8265DE" fill-rule="evenodd"/><text fill="#FFFFFF" font-family="SimSun,SimSun_MSFontService,sans-serif" font-weight="400" font-size="45" transform="translate(339.06 300)">符号概念</text><path d="M378 383.6C378 376.641 383.641 371 390.6 371L1048.4 371C1055.36 371 1061 376.641 1061 383.6L1061 484.4C1061 491.359 1055.36 497 1048.4 497L390.6 497C383.641 497 378 491.359 378 484.4Z" stroke="#FFFFFF" stroke-width="2" stroke-linecap="round" stroke-linejoin="round" stroke-miterlimit="10" fill="#6780D3" fill-rule="evenodd"/><text fill="#FFFFFF" font-family="SimSun,SimSun_MSFontService,sans-serif" font-weight="400" font-size="45" transform="translate(395.38 447)">知识加强和论域专用学习</text><path d="M435 531.5C435 524.596 440.596 519 447.5 519L1105.5 519C1112.4 519 1118 524.596 1118 531.5L1118 631.5C1118 638.404 1112.4 644 1105.5 644L447.5 644C440.596 644 435 638.404 435 631.5Z" stroke="#FFFFFF" stroke-width="2" stroke-linecap="round" stroke-linejoin="round" stroke-miterlimit="10" fill="#6AADC8" fill-rule="evenodd"/><text fill="#FFFFFF" font-family="SimSun,SimSun_MSFontService,sans-serif" font-weight="400" font-size="45" transform="translate(452.553 595)">新阶段</text><path d="M866 216.55 884.225 216.55 884.225 171 928.775 171 928.775 216.55 947 216.55 906.5 253Z" stroke="#E9D3F6" stroke-width="2" stroke-linecap="round" stroke-miterlimit="8" stroke-opacity="0.901961" fill="#E9D3F6" fill-rule="evenodd" fill-opacity="0.901961"/><path d="M923 364.55 941.225 364.55 941.225 319 985.775 319 985.775 364.55 1004 364.55 963.5 401Z" stroke="#E9D3F6" stroke-width="2" stroke-linecap="round" stroke-miterlimit="8" stroke-opacity="0.901961" fill="#D3D3F1" fill-rule="evenodd" fill-opacity="0.901961"/><path d="M979 512.1 997.45 512.1 997.45 467 1042.55 467 1042.55 512.1 1061 512.1 1020 549Z" stroke="#E9D3F6" stroke-width="2" stroke-linecap="round" stroke-miterlimit="8" stroke-opacity="0.901961" fill="#D4E3EB" fill-rule="evenodd" fill-opacity="0.901961"/></g></svg>